<mxfile host="app.diagrams.net" agent="Mozilla/5.0 (Windows NT 10.0; Win64; x64) AppleWebKit/537.36 (KHTML, like Gecko) Chrome/133.0.0.0 Safari/537.36 Edg/133.0.0.0" border="50" scale="3" compressed="false" locked="false" version="26.0.12">
  <diagram name="Blank" id="YmL12bMKpDGza6XwsDPr">
    <mxGraphModel dx="2226" dy="415" grid="0" gridSize="10" guides="1" tooltips="1" connect="1" arrows="1" fold="1" page="0" pageScale="1" pageWidth="827" pageHeight="1169" background="none" math="1" shadow="0">
      <root>
        <mxCell id="X5NqExCQtvZxIxQ7pmgY-0" />
        <mxCell id="1" parent="X5NqExCQtvZxIxQ7pmgY-0" />
        <mxCell id="AlTcTOnFtA8PbtLdYCW9-1" value="コース作成者" style="image;sketch=0;aspect=fixed;html=1;points=[];align=center;fontSize=12;image=img/lib/mscae/Person.svg;imageBackground=default;fillStyle=auto;" vertex="1" parent="1">
          <mxGeometry x="-404" y="406" width="37" height="50" as="geometry" />
        </mxCell>
        <mxCell id="AlTcTOnFtA8PbtLdYCW9-2" value="運営" style="image;sketch=0;aspect=fixed;html=1;points=[];align=center;fontSize=12;image=img/lib/mscae/Person.svg;imageBackground=default;fillStyle=auto;fillColor=light-dark(#FF56E2,var(--ge-dark-color, #121212));" vertex="1" parent="1">
          <mxGeometry x="-404" y="550" width="37" height="50" as="geometry" />
        </mxCell>
      </root>
    </mxGraphModel>
  </diagram>
</mxfile>
